<svg xmlns="http://www.w3.org/2000/svg" viewBox="0 0 512 512" role="img" aria-label="嘟嘟错题本"><rect width="512" height="512" rx="112" fill="#6C5CE7"/><circle cx="410" cy="66" r="118" fill="#8B7AF2" opacity=".9"/><circle cx="18" cy="478" r="150" fill="#52C6AB" opacity=".9"/><path d="M138 192 158 56l78 104c38-18 78-18 116 0l78-104 20 136c19 31 28 66 28 105 0 108-90 188-222 188S34 405 34 297c0-39 10-74 29-105Z" fill="#FFF"/><path d="m162 156 14-66 43 58Z" fill="#D8D0FF"/><path d="m350 148 43-58 14 66Z" fill="#D8D0FF"/><g fill="#1C2447"><ellipse cx="194" cy="253" rx="38" ry="46"/><ellipse cx="318" cy="253" rx="38" ry="46"/></g><g fill="#4A89E8"><ellipse cx="194" cy="255" rx="25" ry="32"/><ellipse cx="318" cy="255" rx="25" ry="32"/></g><g fill="#FFF"><circle cx="180" cy="239" r="10"/><circle cx="304" cy="239" r="10"/><circle cx="206" cy="272" r="6"/><circle cx="330" cy="272" r="6"/></g><path d="m256 296-14 12h28Z" fill="#F58BA6"/><path d="M256 308c-3 17-11 25-23 25m23-25c3 17 11 25 23 25" fill="none" stroke="#68405B" stroke-width="5" stroke-linecap="round"/><path d="M152 374 248 388v89l-117-25Zm112 14 96-14 21 78-117 25Z" fill="#F2EFFF"/><path d="M256 388v89" stroke="#52C6AB" stroke-width="8"/><path d="M163 408l68 10m50 0 68-10" stroke="#B7A9E9" stroke-width="6" stroke-linecap="round"/></svg>