<svg xmlns="http://www.w3.org/2000/svg" viewBox="0 0 500 230"><defs><linearGradient id="g" x2="1"><stop stop-color="#fff" stop-opacity="0"/><stop offset="1" stop-color="#ded5ff"/></linearGradient></defs><path fill="url(#g)" d="M0 0h500v230H0z"/><image href="cat-logo.svg" x="210" y="35" width="165" height="165"/><g fill="#9a79ee"><path d="M378 30h84c13 0 24 11 24 24v42c0 13-11 24-24 24h-13l-18 21-1-21h-52c-13 0-24-11-24-24V54c0-13 11-24 24-24z"/><text x="382" y="83" fill="#fff" font-family="sans-serif" font-size="31">abc</text></g><g opacity=".38" fill="#a998ef"><circle cx="100" cy="52" r="7"/><circle cx="117" cy="40" r="5"/><circle cx="132" cy="53" r="7"/><path d="M116 60c14 0 23 11 20 22-5 11-35 11-40 0-3-11 7-22 20-22z"/></g></svg>