<svg xmlns="http://www.w3.org/2000/svg" viewBox="0 0 275 260"><defs><linearGradient id="c" x2="1" y2="1"><stop stop-color="#d8ccff"/><stop offset="1" stop-color="#b89eea"/></linearGradient></defs><path d="M15 175c23-54 59-83 116-82 57 1 99 36 128 100-78 27-174 21-244-18z" fill="url(#c)"/><image href="cat-logo.svg" x="72" y="62" width="135" height="135"/><g fill="#9bb6d0" opacity=".6"><path d="M16 221C4 168 17 120 42 95c19 39 19 82-4 127z"/><path d="M231 230c-8-50 6-94 31-118 16 38 14 78-11 119z"/></g><g fill="#927ce5"><rect x="42" y="200" width="165" height="22" rx="8"/><rect x="61" y="180" width="142" height="20" rx="8" fill="#c9bbf5"/></g></svg>