<svg xmlns="http://www.w3.org/2000/svg" viewBox="0 0 760 260"><defs><linearGradient id="g" x1="0" x2="1"><stop stop-color="#fff" stop-opacity="0"/><stop offset="1" stop-color="#e8e3ff"/></linearGradient><filter id="s"><feDropShadow dx="0" dy="8" stdDeviation="10" flood-color="#806fe0" flood-opacity=".18"/></filter></defs><path fill="url(#g)" d="M0 0h760v260H0z"/><g opacity=".45" fill="#b5a7f5"><circle cx="135" cy="66" r="9"/><circle cx="155" cy="54" r="6"/><circle cx="176" cy="68" r="9"/><path d="M157 76c17 0 29 14 25 28-5 14-44 14-49 0-4-14 8-28 24-28z"/><path d="M650 64l10 21 23 3-17 16 4 23-20-11-21 11 4-23-17-16 23-3z"/></g><g transform="translate(255 42)" filter="url(#s)"><rect x="0" y="132" width="310" height="32" rx="12" fill="#e7ddff"/><rect x="28" y="105" width="160" height="26" rx="8" fill="#b9a4f3"/><rect x="55" y="80" width="140" height="25" rx="8" fill="#8d77de"/><rect x="205" y="125" width="75" height="40" rx="8" fill="#fff" stroke="#a99be4" stroke-width="4"/><path d="M220 125v-20h45v20" fill="none" stroke="#a99be4" stroke-width="5"/><image href="cat-logo.svg" x="140" y="0" width="155" height="155"/><ellipse cx="217" cy="145" rx="105" ry="17" fill="#fff" opacity=".72"/></g><g transform="translate(35 38)" fill="#fff" filter="url(#s)"><rect width="170" height="64" rx="32"/><text x="25" y="29" font-family="sans-serif" font-size="15" fill="#42456b" font-weight="700">✎ 手动记录</text><text x="25" y="49" font-family="sans-serif" font-size="12" fill="#8589a1">专注错题整理</text></g><g transform="translate(545 45)" fill="#fff" filter="url(#s)"><rect width="180" height="68" rx="34"/><text x="24" y="30" font-family="sans-serif" font-size="15" fill="#42456b" font-weight="700">abc 智能英语学习</text><text x="24" y="50" font-family="sans-serif" font-size="12" fill="#8589a1">自然拼读·听写</text></g></svg>