<svg xmlns="http://www.w3.org/2000/svg" viewBox="0 0 300 205"><ellipse cx="160" cy="180" rx="122" ry="20" fill="#eeeaff"/><image href="cat-logo.svg" x="95" y="72" width="115" height="115"/><g fill="#f59ab0"><circle cx="223" cy="135" r="8"/><circle cx="238" cy="126" r="5"/><circle cx="248" cy="139" r="7"/><path d="M237 143c12 0 20 9 17 18-4 10-30 10-34 0-3-9 5-18 17-18z"/></g><path d="M40 86h145c18 0 32 14 32 32v8c0 18-14 32-32 32h-18l-15 17-2-17H40c-18 0-32-14-32-32v-8c0-18 14-32 32-32z" fill="#fff" stroke="#ecebf6"/><text x="35" y="115" font-family="sans-serif" font-size="14" fill="#525673">加油哦！</text><text x="35" y="138" font-family="sans-serif" font-size="13" fill="#777c93">你一定可以的！</text></svg>