<svg xmlns="http://www.w3.org/2000/svg" viewBox="0 0 260 220"><ellipse cx="130" cy="188" rx="112" ry="21" fill="#e8e1ff"/><path d="M20 154c20-52 48-79 95-76 46 3 88 33 119 90-61 20-151 20-214-14z" fill="#d9ceff"/><image href="cat-logo.svg" x="66" y="58" width="126" height="126"/><g fill="#96bfc7" opacity=".75"><path d="M20 178c-15-56-5-102 19-132 22 35 27 79 4 137z"/><path d="M228 182c-15-51-5-91 18-119 22 32 26 72 4 124z"/></g><circle cx="220" cy="55" r="5" fill="#c8bbfa"/><circle cx="37" cy="42" r="7" fill="#c8bbfa"/></svg>