<svg xmlns="http://www.w3.org/2000/svg" viewBox="0 0 700 180"><defs><linearGradient id="g" x2="1"><stop stop-color="#f9f7ff"/><stop offset="1" stop-color="#ddd4ff"/></linearGradient></defs><path d="M0 0h700v180H0z" fill="url(#g)"/><g opacity=".5" fill="#aa98eb"><circle cx="80" cy="45" r="7"/><circle cx="97" cy="34" r="5"/><circle cx="113" cy="46" r="7"/><path d="M96 53c13 0 23 11 19 21-4 11-34 11-38 0-4-10 6-21 19-21z"/></g><image href="cat-logo.svg" x="360" y="18" width="145" height="145"/><rect x="520" y="102" width="118" height="52" rx="14" fill="#9a86dc"/><rect x="540" y="52" width="68" height="70" rx="9" fill="#fff" opacity=".85"/><path d="M585 46c12-25 30-29 50-37-2 26-17 47-50 58M604 67c25-20 46-17 69-17-10 25-31 40-65 36" fill="#78add4" opacity=".8"/><rect x="210" y="50" width="185" height="73" rx="14" fill="#fff" stroke="#dfd9f4"/><text x="235" y="83" font-family="sans-serif" font-size="14" fill="#656985">每一道错题，</text><text x="235" y="107" font-family="sans-serif" font-size="14" fill="#656985">都是通往正确的阶梯哦～</text></svg>